<svg id="dotgIcon" width="50px" height="50px" enableBackground="new 0 0 512 512" version="1.1" viewBox="0 0 512 512" xmlns="http://www.w3.org/2000/svg" >
              <path fill='rgba(217, 26, 6, 1.0)'
                d="M283.195,411.084c-1.718,0-3.454-0.477-4.959-1.469c-3.242-2.127-4.783-6.061-3.828-9.816l26.822-106.666  L41.717,334.498c-3.135,0.496-6.191-0.637-8.238-2.957c-2.055-2.34-2.773-5.563-1.887-8.557L79.318,161.11  c1.312-4.465,5.785-7.192,10.373-6.342l233.491,43.758l24.783-90.927c0.904-3.304,3.579-5.819,6.945-6.501  c3.349-0.683,6.819,0.585,8.929,3.269L478.832,250.38c1.506,1.905,2.18,4.322,1.879,6.724c-0.284,2.4-1.524,4.584-3.438,6.072  L288.759,409.189C287.13,410.447,285.162,411.084,283.195,411.084z M313.385,272.938c2.533,0,4.959,1.063,6.695,2.957  c2.056,2.232,2.852,5.369,2.109,8.326l-23.794,94.551l160.542-124.344l-98.199-124.684l-22.251,81.617  c-1.24,4.57-5.757,7.414-10.416,6.528L94.404,174.104L53.054,314.32l258.913-41.26C312.444,272.971,312.925,272.938,313.385,272.938  z" />
            </svg>