<?xml version="1.0" encoding="utf-8"?>
<!-- Generator: Adobe Illustrator 26.1.0, SVG Export Plug-In . SVG Version: 6.00 Build 0)  -->
<svg version="1.1" id="" xmlns="http://www.w3.org/2000/svg" xmlns:xlink="http://www.w3.org/1999/xlink" x="0px" y="0px"
	 viewBox="0 0 128 128" style="enable-background:new 0 0 128 128;" xml:space="preserve">
<g>
	<path d="M57.12,46.78H45.08c-4.19,0-7.59,3.41-7.59,7.59v20.96c0,4.19,3.41,7.59,7.59,7.59h12.04c4.19,0,7.59-3.41,7.59-7.59V64.85
		c0-1.1-0.9-2-2-2h-9.89c-1.1,0-2,0.9-2,2c0,1.1,0.9,2,2,2h7.89v8.48c0,1.98-1.61,3.59-3.59,3.59H45.08c-1.98,0-3.59-1.61-3.59-3.59
		V54.37c0-1.98,1.61-3.59,3.59-3.59h12.04c1.98,0,3.59,1.61,3.59,3.59v2.82c0,1.1,0.9,2,2,2s2-0.9,2-2v-2.82
		C64.71,50.19,61.3,46.78,57.12,46.78z"/>
	<path d="M99.41,86.9l-19-45.56c-0.42-1.02-1.6-1.5-2.62-1.08c-1.02,0.42-1.5,1.6-1.08,2.62l19,45.56c0.32,0.77,1.06,1.23,1.85,1.23
		c0.26,0,0.52-0.05,0.77-0.16C99.35,89.09,99.83,87.92,99.41,86.9z"/>
</g>
</svg>
