<?xml version="1.0" standalone="no"?>
<!DOCTYPE svg PUBLIC "-//W3C//DTD SVG 20010904//EN"
 "http://www.w3.org/TR/2001/REC-SVG-20010904/DTD/svg10.dtd">
<svg version="1.0" xmlns="http://www.w3.org/2000/svg"
 width="640.000000pt" height="640.000000pt" viewBox="0 0 640.000000 640.000000"
 preserveAspectRatio="xMidYMid meet">

<g transform="translate(0.000000,640.000000) scale(0.100000,-0.100000)"
fill="#000000" stroke="none">
<path d="M3657 4498 c-18 -14 -12 -32 158 -433 81 -191 159 -380 190 -455 12
-30 52 -126 89 -213 168 -400 200 -477 231 -552 186 -449 308 -732 322 -742
10 -8 49 -13 99 -13 84 0 114 5 114 21 0 5 -64 160 -141 346 -169 404 -412
984 -556 1328 -58 138 -145 347 -194 465 -58 140 -98 223 -115 238 -21 19 -36
22 -103 22 -46 0 -84 -5 -94 -12z"/>
<path d="M1969 4191 c-105 -41 -173 -106 -223 -211 l-31 -65 -3 -594 c-2 -524
-1 -600 14 -650 32 -110 100 -192 206 -248 l53 -28 410 0 410 0 61 32 c70 36
153 121 186 191 22 46 23 57 26 406 2 286 0 361 -10 367 -7 5 -156 9 -331 9
l-317 0 -11 -27 c-11 -31 -6 -150 8 -164 5 -5 110 -10 233 -11 l225 -3 0 -241
0 -241 -29 -41 c-16 -23 -46 -50 -70 -62 -40 -19 -61 -20 -372 -20 -191 0
-344 4 -366 10 -41 12 -103 75 -115 117 -5 16 -8 282 -8 593 0 547 1 566 20
599 11 19 37 48 58 65 l39 31 362 0 362 0 36 -24 c66 -46 82 -81 86 -195 5
-121 8 -126 102 -126 100 0 102 3 98 146 -3 104 -6 126 -30 176 -35 76 -104
148 -181 189 l-62 34 -395 2 c-362 2 -399 1 -441 -16z"/>
</g>
</svg>
